<?xml version="1.0" encoding="UTF-8"?> <svg xmlns="http://www.w3.org/2000/svg" width="246" height="247" viewBox="0 0 246 247" fill="none"><g clip-path="url(#clip0_2332_5846)"><path d="M173.236 112.529H169.068V135.265H173.236V112.529Z" fill="#00ff00"></path><path d="M123.38 112.529H133.81C138.649 112.529 141.059 115.868 141.059 119.285C141.059 122.149 139.498 124.776 136.437 125.784L142.323 135.265H137.444L132.348 126.633H127.548V135.265H123.38V112.529ZM133.039 123.058C135.548 123.058 136.812 121.596 136.812 119.64C136.812 117.784 135.607 116.421 133.138 116.421H127.548V123.038H133.039V123.058Z" fill="#00ff00"></path><path d="M146.096 112.529H154.254C161.799 112.529 165.296 117.527 165.296 123.512C165.296 129.596 161.661 135.265 153.701 135.265H146.096V112.529ZM153.72 131.374C158.915 131.374 161.029 127.897 161.029 123.611C161.029 119.522 159.113 116.44 154.234 116.44H150.244V131.374H153.72Z" fill="#00ff00"></path><path d="M176.989 123.888C176.989 117.35 180.979 111.957 188.229 111.957C195.478 111.957 199.468 117.35 199.468 123.888C199.468 130.426 195.478 135.839 188.229 135.839C180.979 135.839 176.989 130.406 176.989 123.888ZM188.229 132.006C192.851 132.006 195.221 128.49 195.221 123.888C195.221 119.266 192.851 115.809 188.229 115.809C183.607 115.809 181.236 119.285 181.236 123.888C181.256 128.49 183.626 132.006 188.229 132.006Z" fill="#00ff00"></path><path d="M97.1279 123.888C97.1279 117.35 101.138 111.957 108.367 111.957C115.617 111.957 119.607 117.35 119.607 123.888C119.607 130.426 115.617 135.839 108.367 135.839C101.138 135.839 97.1279 130.406 97.1279 123.888ZM108.367 132.006C112.99 132.006 115.36 128.49 115.36 123.888C115.36 119.266 112.99 115.809 108.367 115.809C103.745 115.809 101.375 119.285 101.375 123.888C101.395 128.49 103.765 132.006 108.367 132.006Z" fill="#00ff00"></path><path d="M38.2437 112.531H33.8783L41.5425 131.474H34.4314L32.8906 135.267H47.4289L38.2437 112.531Z" fill="#00ff00"></path><path d="M31.9625 117.271L24.6934 135.267H29.0588L34.1353 122.664L31.9625 117.271Z" fill="#00ff00"></path><path d="M72.7334 124.046C72.7334 116.895 77.1778 111.957 84.0322 111.957C89.4643 111.957 93.5532 115.039 93.8494 120.273H89.6025C89.3655 117.488 87.1729 115.789 83.9136 115.789C79.4692 115.789 76.9606 119.068 76.9606 123.868C76.9606 128.194 78.9754 131.987 83.8544 131.987C87.0939 131.987 89.563 130.288 89.7013 126.831H93.9482C93.6914 132.816 89.2075 135.839 83.5581 135.839C76.1112 135.839 72.7334 130.209 72.7334 124.046Z" fill="#00ff00"></path><path d="M48.4365 124.046C48.4365 116.895 52.881 111.957 59.7353 111.957C65.1674 111.957 69.2563 115.039 69.5526 120.273H65.3057C65.0686 117.488 62.876 115.789 59.6168 115.789C55.1723 115.789 52.6637 119.068 52.6637 123.868C52.6637 128.194 54.6785 131.987 59.5575 131.987C62.797 131.987 65.2662 130.288 65.4044 126.831H69.6513C69.3945 132.816 64.9106 135.839 59.2612 135.839C51.8143 135.839 48.4365 130.209 48.4365 124.046Z" fill="#00ff00"></path><path d="M203.261 112.529H208.16L218.076 128.806V112.529H222.243V135.265H217.463L207.409 118.791V135.265H203.261V112.529Z" fill="#00ff00"></path></g><defs><clipPath id="clip0_2332_5846"><rect width="197.531" height="23.8815" fill="white" transform="translate(24.6924 111.957)"></rect></clipPath></defs></svg> 