{
  "accessors": [
    {
      "bufferView": 3,
      "componentType": 5126,
      "count": 198,
      "max": [
        29.458709716796875,
        -10.490537643432617,
        26.385547637939453
      ],
      "min": [
        -29.075214385986328,
        -15.757349014282227,
        -4.614287853240967
      ],
      "type": "VEC3"
    },
    {
      "bufferView": 3,
      "byteOffset": 2376,
      "componentType": 5126,
      "count": 198,
      "max": [
        0.9999218583106995,
        0.9996627569198608,
        0.9996371269226074
      ],
      "min": [
        -0.9999223351478577,
        -0.9996780157089233,
        -0.9996483325958252
      ],
      "type": "VEC3"
    },
    {
      "bufferView": 4,
      "componentType": 5126,
      "count": 198,
      "max": [
        0.8689340949058533,
        0.9205475449562073,
        0.9999462366104126,
        -1.0
      ],
      "min": [
        -0.9999518990516663,
        -0.9997338056564331,
        -0.9996270537376404,
        -1.0
      ],
      "type": "VEC4"
    },
    {
      "bufferView": 2,
      "componentType": 5126,
      "count": 198,
      "max": [
        0.991100013256073,
        0.9912999868392944
      ],
      "min": [
        0.005799999926239252,
        0.005800008773803711
      ],
      "type": "VEC2"
    },
    {
      "bufferView": 1,
      "componentType": 5125,
      "count": 510,
      "type": "SCALAR"
    },
    {
      "bufferView": 3,
      "byteOffset": 4752,
      "componentType": 5126,
      "count": 692,
      "max": [
        29.796653747558594,
        15.619415283203125,
        25.490509033203125
      ],
      "min": [
        -29.08792495727539,
        -14.788604736328125,
        -4.89749002456665
      ],
      "type": "VEC3"
    },
    {
      "bufferView": 3,
      "byteOffset": 13056,
      "componentType": 5126,
      "count": 692,
      "max": [
        0.9999222159385681,
        0.9999998807907104,
        0.9996357560157776
      ],
      "min": [
        -0.9999222159385681,
        -0.9996494650840759,
        -0.9996357560157776
      ],
      "type": "VEC3"
    },
    {
      "bufferView": 4,
      "byteOffset": 3168,
      "componentType": 5126,
      "count": 692,
      "max": [
        0.9999232292175293,
        0.9998213052749634,
        0.9996503591537476,
        -1.0
      ],
      "min": [
        -0.9999309182167053,
        -0.9996490478515625,
        -0.9998490810394287,
        -1.0
      ],
      "type": "VEC4"
    },
    {
      "bufferView": 2,
      "byteOffset": 1584,
      "componentType": 5126,
      "count": 692,
      "max": [
        0.9864000082015991,
        0.9872000217437744
      ],
      "min": [
        0.003100000089034438,
        0.003099977970123291
      ],
      "type": "VEC2"
    },
    {
      "bufferView": 1,
      "byteOffset": 2040,
      "componentType": 5125,
      "count": 2760,
      "type": "SCALAR"
    },
    {
      "bufferView": 5,
      "componentType": 5126,
      "count": 2,
      "max": [
        1.0,
        0.0,
        0.0,
        0.0,
        0.0,
        1.0,
        0.0,
        0.0,
        0.0,
        0.0,
        1.0,
        0.0,
        0.0,
        0.0,
        0.0,
        1.0
      ],
      "min": [
        1.0,
        0.0,
        0.0,
        0.0,
        0.0,
        1.0,
        0.0,
        0.0,
        0.0,
        0.0,
        1.0,
        0.0,
        0.0,
        0.0,
        0.0,
        1.0
      ],
      "type": "MAT4"
    },
    {
      "bufferView": 0,
      "componentType": 5123,
      "count": 198,
      "type": "VEC4"
    },
    {
      "bufferView": 4,
      "byteOffset": 14240,
      "componentType": 5126,
      "count": 198,
      "max": [
        1.0,
        0.0,
        0.0,
        0.0
      ],
      "min": [
        1.0,
        0.0,
        0.0,
        0.0
      ],
      "type": "VEC4"
    },
    {
      "bufferView": 0,
      "byteOffset": 1584,
      "componentType": 5123,
      "count": 692,
      "type": "VEC4"
    },
    {
      "bufferView": 4,
      "byteOffset": 17408,
      "componentType": 5126,
      "count": 692,
      "max": [
        1.0,
        0.0,
        0.0,
        0.0
      ],
      "min": [
        1.0,
        0.0,
        0.0,
        0.0
      ],
      "type": "VEC4"
    }
  ],
  "asset": {
    "extras": {
      "author": "rendy.six (https://sketchfab.com/rendyman)",
      "license": "CC-BY-4.0 (http://creativecommons.org/licenses/by/4.0/)",
      "source": "https://sketchfab.com/3d-models/dj-toilet-30-speaker-d0675b46459c4127bb8255f777ec12b2",
      "title": "DJ Toilet 3.0 Speaker"
    },
    "generator": "Sketchfab-16.61.0",
    "version": "2.0"
  },
  "bufferViews": [
    {
      "buffer": 0,
      "byteLength": 7120,
      "byteStride": 8,
      "name": "shortBufferViews",
      "target": 34962
    },
    {
      "buffer": 0,
      "byteLength": 13080,
      "byteOffset": 7120,
      "name": "floatBufferViews",
      "target": 34963
    },
    {
      "buffer": 0,
      "byteLength": 7120,
      "byteOffset": 20200,
      "byteStride": 8,
      "name": "floatBufferViews",
      "target": 34962
    },
    {
      "buffer": 0,
      "byteLength": 21360,
      "byteOffset": 27320,
      "byteStride": 12,
      "name": "floatBufferViews",
      "target": 34962
    },
    {
      "buffer": 0,
      "byteLength": 28480,
      "byteOffset": 48680,
      "byteStride": 16,
      "name": "floatBufferViews",
      "target": 34962
    },
    {
      "buffer": 0,
      "byteLength": 128,
      "byteOffset": 77160,
      "name": "floatBufferViews"
    }
  ],
  "buffers": [
    {
      "byteLength": 77288,
      "uri": "scene.bin"
    }
  ],
  "images": [
    {
      "uri": "textures/wallsupport_baseColor.png"
    },
    {
      "uri": "textures/wallsupport_normal.png"
    },
    {
      "uri": "textures/wallspeaker_baseColor.png"
    },
    {
      "uri": "textures/wallspeaker_normal.png"
    }
  ],
  "materials": [
    {
      "doubleSided": true,
      "name": "wallsupport",
      "normalTexture": {
        "index": 1
      },
      "pbrMetallicRoughness": {
        "baseColorTexture": {
          "index": 0
        },
        "metallicFactor": 0.0,
        "roughnessFactor": 0.9577051494623774
      }
    },
    {
      "doubleSided": true,
      "name": "wallspeaker",
      "normalTexture": {
        "index": 3
      },
      "pbrMetallicRoughness": {
        "baseColorTexture": {
          "index": 2
        },
        "metallicFactor": 0.0,
        "roughnessFactor": 0.9577051494623774
      }
    }
  ],
  "meshes": [
    {
      "name": "mesh0_wallsupport_0",
      "primitives": [
        {
          "attributes": {
            "JOINTS_0": 11,
            "NORMAL": 1,
            "POSITION": 0,
            "TANGENT": 2,
            "TEXCOORD_0": 3,
            "TEXCOORD_1": 3,
            "TEXCOORD_2": 3,
            "WEIGHTS_0": 12
          },
          "indices": 4,
          "material": 0,
          "mode": 4
        }
      ]
    },
    {
      "name": "mesh1_wallspeaker_0",
      "primitives": [
        {
          "attributes": {
            "JOINTS_0": 13,
            "NORMAL": 6,
            "POSITION": 5,
            "TANGENT": 7,
            "TEXCOORD_0": 8,
            "TEXCOORD_1": 8,
            "TEXCOORD_2": 8,
            "WEIGHTS_0": 14
          },
          "indices": 9,
          "material": 1,
          "mode": 4
        }
      ]
    }
  ],
  "nodes": [
    {
      "children": [
        1
      ],
      "matrix": [
        1.0,
        0.0,
        0.0,
        0.0,
        0.0,
        1.0,
        4.440892098500626e-16,
        0.0,
        0.0,
        -4.440892098500626e-16,
        1.0,
        0.0,
        0.0,
        0.0,
        0.0,
        1.0
      ],
      "name": "Sketchfab_model"
    },
    {
      "children": [
        2
      ],
      "matrix": [
        0.009999999776482582,
        0.0,
        0.0,
        0.0,
        0.0,
        0.0,
        0.009999999776482582,
        0.0,
        0.0,
        -0.009999999776482582,
        0.0,
        0.0,
        0.0,
        0.0,
        0.0,
        1.0
      ],
      "name": "60339b1dad264cc4af16b6e8833efb3a.fbx"
    },
    {
      "children": [
        3
      ],
      "name": "RootNode"
    },
    {
      "children": [
        4,
        5,
        6
      ],
      "name": "Object_3"
    },
    {
      "children": [
        7
      ],
      "name": "_rootJoint"
    },
    {
      "mesh": 0,
      "name": "Object_5",
      "skin": 0
    },
    {
      "mesh": 1,
      "name": "Object_6",
      "skin": 0
    },
    {
      "name": "static_prop_00"
    }
  ],
  "samplers": [
    {
      "magFilter": 9729,
      "minFilter": 9987,
      "wrapS": 10497,
      "wrapT": 10497
    }
  ],
  "scene": 0,
  "scenes": [
    {
      "name": "Sketchfab_Scene",
      "nodes": [
        0
      ]
    }
  ],
  "skins": [
    {
      "inverseBindMatrices": 10,
      "joints": [
        4,
        7
      ],
      "skeleton": 4
    }
  ],
  "textures": [
    {
      "sampler": 0,
      "source": 0
    },
    {
      "sampler": 0,
      "source": 1
    },
    {
      "sampler": 0,
      "source": 2
    },
    {
      "sampler": 0,
      "source": 3
    }
  ]
}
